<?xml version="1.0" encoding="UTF-8"?>
<svg version="1.1" xmlns="http://www.w3.org/2000/svg" width="500" height="500">
<path d="M0 0 C165 0 330 0 500 0 C500 165 500 330 500 500 C335 500 170 500 0 500 C0 335 0 170 0 0 Z " fill="#FEFEFE" transform="translate(0,0)"/>
<path d="M0 0 C1.07096924 0.26635254 1.07096924 0.26635254 2.16357422 0.53808594 C37.3061824 9.38484528 70.87540632 25.00309467 99 48 C99.89203125 48.70125 100.7840625 49.4025 101.703125 50.125 C133.71980371 75.58855734 157.04836 107.62672745 175.125 144.0625 C175.62314209 145.03832031 176.12128418 146.01414063 176.63452148 147.01953125 C179.26960285 152.44615925 180.92156331 156.01156641 179 162 C177.36970905 166.0218648 175.53539742 169.9167529 173.625 173.8125 C173.08407715 174.92254395 172.5431543 176.03258789 171.98583984 177.17626953 C161.74551878 197.87504513 148.88082532 217.18500848 133 234 C131.91174193 235.26661866 130.82831815 236.53740846 129.75 237.8125 C121.30967363 247.46416951 112.07209485 256.08386009 102 264 C100.76668212 265.01581415 99.53667219 266.03568267 98.3125 267.0625 C97.549375 267.701875 96.78625 268.34125 96 269 C92.44519997 267.49158187 90.20440378 265.42366339 87.515625 262.67578125 C86.66226562 261.81146484 85.80890625 260.94714844 84.9296875 260.05664062 C84.04539062 259.15107422 83.16109375 258.24550781 82.25 257.3125 C76.99427723 251.95150682 71.74989945 246.70392841 66.04589844 241.82104492 C60.9305745 237.26791828 56.2256083 232.25932964 51.421875 227.3828125 C46.94698799 222.86674555 42.46184189 218.54690759 37.49609375 214.5703125 C35.72371833 212.71001246 35.28193098 211.53894163 35 209 C36.0390625 206.14453125 36.0390625 206.14453125 37.625 202.8125 C40.12472859 197.33484027 42.12549058 191.84263348 43.8125 186.0625 C44.1221167 185.01703003 44.1221167 185.01703003 44.43798828 183.95043945 C52.22568504 156.62811292 46.52751428 127.09337051 33.31591797 102.52148438 C18.8084156 76.89043101 -5.52588482 60.12784242 -33.43359375 52 C-62.24126085 44.51935736 -91.51409586 48.8023693 -117.2890625 63.3515625 C-142.45538112 78.65442483 -160.81409931 102.24496059 -168.03515625 130.9140625 C-174.35458665 159.27324549 -169.82563741 189.24015298 -155 214.125 C-139.8597767 237.1734176 -119.53425425 252.5638724 -93.625 261.4375 C-92.91255127 261.68459717 -92.20010254 261.93169434 -91.46606445 262.1862793 C-81.56614406 265.392523 -71.3751813 265.18197041 -61.0625 265.1875 C-59.86431641 265.19974609 -58.66613281 265.21199219 -57.43164062 265.22460938 C-47.13186353 265.24144825 -37.8038084 263.7712799 -28 260.6875 C-26.98534668 260.36918213 -26.98534668 260.36918213 -25.95019531 260.04443359 C-20.82595235 258.38859121 -16.01975793 256.30217259 -11.234375 253.8203125 C-8.50566491 252.81851334 -7.69351837 252.96337394 -5 254 C-2.74511719 255.93017578 -2.74511719 255.93017578 -0.296875 258.4453125 C0.60160156 259.35796875 1.50007813 260.270625 2.42578125 261.2109375 C3.36764053 262.1818524 4.30904436 263.15320932 5.25 264.125 C10.6955159 269.70071811 16.10211445 275.19852246 22.03027344 280.26171875 C25.85926437 283.64079851 29.41070165 287.30776761 33 290.9375 C33.77472656 291.71673828 34.54945313 292.49597656 35.34765625 293.29882812 C37.23410757 295.1969242 39.11816245 297.09733149 41 299 C38.72100071 301.58773748 36.72159864 302.70287748 33.4921875 303.8671875 C32.59685303 304.19299805 31.70151855 304.51880859 30.77905273 304.85449219 C29.82071533 305.19125977 28.86237793 305.52802734 27.875 305.875 C26.8837915 306.22723633 25.89258301 306.57947266 24.87133789 306.94238281 C12.91916043 311.14301923 1.06459538 314.7393123 -11.375 317.1875 C-12.15174072 317.34250977 -12.92848145 317.49751953 -13.72875977 317.65722656 C-29.66509628 320.6094124 -45.69988892 321.41091204 -61.875 321.375 C-63.27282211 321.37418427 -63.27282211 321.37418427 -64.69888306 321.37335205 C-112.55549292 321.24581741 -159.60733821 308.01035028 -200 282 C-200.66402832 281.57251465 -201.32805664 281.1450293 -202.01220703 280.70458984 C-225.19429033 265.60238303 -246.94559437 246.80824692 -264 225 C-264.80179687 223.99195313 -265.60359375 222.98390625 -266.4296875 221.9453125 C-280.02563442 204.71952185 -291.19967728 185.97327759 -300.3125 166 C-300.75662231 165.05846069 -300.75662231 165.05846069 -301.2097168 164.09790039 C-303.66193126 158.47449355 -302.76444893 155.01858833 -300.65234375 149.44140625 C-300.09000259 148.1443774 -299.51788442 146.85155599 -298.9375 145.5625 C-298.62586914 144.86439209 -298.31423828 144.16628418 -297.99316406 143.44702148 C-289.78903478 125.34283469 -279.29071534 108.6125303 -267 93 C-266.29488281 92.10152344 -265.58976562 91.20304687 -264.86328125 90.27734375 C-258.92031361 82.86197121 -252.53416233 75.89223068 -246 69 C-244.93265625 67.86884766 -244.93265625 67.86884766 -243.84375 66.71484375 C-239.53455123 62.2731901 -234.91537548 58.33013582 -230.08203125 54.46875 C-227.92713179 52.74264549 -225.80619312 51.00077421 -223.69921875 49.21875 C-163.15526186 -1.4440956 -76.06836534 -19.29757941 0 0 Z " fill="#EADE8D" transform="translate(311,81)"/>
<path d="M0 0 C1.05292236 -0.0103125 2.10584473 -0.020625 3.19067383 -0.03125 C21.17238053 0.1709968 36.43768598 7.98426059 49.32421875 20.23046875 C61.23385744 32.78242503 66.61372667 48.26109101 66.625 65.25 C66.63724609 66.20970703 66.64949219 67.16941406 66.66210938 68.15820312 C66.69818394 85.77461371 59.08363485 100.42284149 47.25 113.125 C33.44186885 126.31943644 15.65537575 132.08139355 -3.203125 131.70703125 C-22.03346949 130.85454242 -37.08042503 121.6709782 -49.7421875 108.1015625 C-63.07766413 92.55189352 -65.9200804 74.22413057 -64.5625 54.4375 C-62.55463715 39.13432907 -52.65761909 23.87448112 -40.9453125 14.16015625 C-35.74452292 10.40024116 -30.26932201 7.34451099 -24.5625 4.4375 C-23.67433594 3.97730469 -22.78617188 3.51710937 -21.87109375 3.04296875 C-14.78348034 0.05370706 -7.57933229 0.0619579 0 0 Z " fill="#EADE8D" transform="translate(248.5625,172.5625)"/>
</svg>
